# xmcd
#
# Track frame offsets: 
#        150
#        17595
#        33300
#        48802
#        62922
#        76195
#        94632
#        108057
#        123457
#        139917
#        153092
#        171077
#        185205
#        201262
#
# Disc length: 2796 seconds
#
# Revision: 2
# Processed by: cddbd v1.5.2PL0 Copyright (c) Steve Scherf et al.
# Submitted via: ExactAudioCopy v1.0b3
#
DISCID=b00aea0e
DTITLE=The Jive Aces - Planet Jive
DYEAR=2003
DGENRE=Swing
TTITLE0=Planet Jive
TTITLE1=Ride Ride Ride
TTITLE2=Spectator
TTITLE3=What Do I Tell My Heart?
TTITLE4=Aces Swing
TTITLE5=Think For Yourself
TTITLE6=When You Wish Upon a Star
TTITLE7=Blue Skies
TTITLE8=Anything You Wanna Be
TTITLE9=Imagination (or Something Else?)
TTITLE10=Ac-cent-tchu-ate The Positive
TTITLE11=Apprehend That Feline
TTITLE12=Junky Joe
TTITLE13=Return To Planet Jive
EXTD=
EXTT0=
EXTT1=
EXTT2=
EXTT3=
EXTT4=
EXTT5=
EXTT6=
EXTT7=
EXTT8=
EXTT9=
EXTT10=
EXTT11=
EXTT12=
EXTT13=
PLAYORDER=
